<?xml version="1.0" encoding="utf-8"?>
<!-- Generator: Adobe Illustrator 13.0.0, SVG Export Plug-In  -->
<!DOCTYPE svg PUBLIC "-//W3C//DTD SVG 1.1//EN" "http://www.w3.org/Graphics/SVG/1.1/DTD/svg11.dtd" [
	<!ENTITY ns_flows "http://ns.adobe.com/Flows/1.0/">
]>
<svg version="1.1"
	 xmlns="http://www.w3.org/2000/svg" xmlns:xlink="http://www.w3.org/1999/xlink" xmlns:a="http://ns.adobe.com/AdobeSVGViewerExtensions/3.0/"
	 x="0px" y="0px" width="686px" height="669px" viewBox="0 -0.481 686 669" enable-background="new 0 -0.481 686 669"
	 xml:space="preserve">
<defs>
</defs>
<line fill="none" stroke="#fff" stroke-width="1.139" stroke-miterlimit="10" x1="265.625" y1="0.129" x2="419.839" y2="668.104"/>
<line fill="none" stroke="#fff" stroke-width="1.139" stroke-miterlimit="10" x1="259.806" y1="1.525" x2="425.655" y2="666.708"/>
<line fill="none" stroke="#fff" stroke-width="1.139" stroke-miterlimit="10" x1="254.016" y1="3.023" x2="431.448" y2="665.209"/>
<line fill="none" stroke="#fff" stroke-width="1.139" stroke-miterlimit="10" x1="248.25" y1="4.622" x2="437.212" y2="663.61"/>
<line fill="none" stroke="#fff" stroke-width="1.139" stroke-miterlimit="10" x1="242.514" y1="6.321" x2="442.948" y2="661.912"/>
<line fill="none" stroke="#fff" stroke-width="1.139" stroke-miterlimit="10" x1="236.809" y1="8.121" x2="448.655" y2="660.113"/>
<line fill="none" stroke="#fff" stroke-width="1.139" stroke-miterlimit="10" x1="231.135" y1="10.019" x2="454.326" y2="658.215"/>
<line fill="none" stroke="#fff" stroke-width="1.139" stroke-miterlimit="10" x1="225.496" y1="12.016" x2="459.966" y2="656.219"/>
<line fill="none" stroke="#fff" stroke-width="1.139" stroke-miterlimit="10" x1="219.892" y1="14.11" x2="465.57" y2="654.123"/>
<line fill="none" stroke="#fff" stroke-width="1.139" stroke-miterlimit="10" x1="214.327" y1="16.303" x2="471.137" y2="651.931"/>
<line fill="none" stroke="#fff" stroke-width="1.139" stroke-miterlimit="10" x1="208.799" y1="18.592" x2="476.663" y2="649.643"/>
<line fill="none" stroke="#fff" stroke-width="1.139" stroke-miterlimit="10" x1="203.313" y1="20.978" x2="482.149" y2="647.256"/>
<line fill="none" stroke="#fff" stroke-width="1.139" stroke-miterlimit="10" x1="197.869" y1="23.459" x2="487.594" y2="644.775"/>
<line fill="none" stroke="#fff" stroke-width="1.139" stroke-miterlimit="10" x1="192.469" y1="26.034" x2="492.993" y2="642.199"/>
<line fill="none" stroke="#fff" stroke-width="1.139" stroke-miterlimit="10" x1="187.115" y1="28.704" x2="498.348" y2="639.529"/>
<line fill="none" stroke="#fff" stroke-width="1.139" stroke-miterlimit="10" x1="181.81" y1="31.466" x2="503.653" y2="636.768"/>
<line fill="none" stroke="#fff" stroke-width="1.139" stroke-miterlimit="10" x1="176.551" y1="34.32" x2="508.91" y2="633.912"/>
<line fill="none" stroke="#fff" stroke-width="1.139" stroke-miterlimit="10" x1="171.345" y1="37.267" x2="514.118" y2="630.967"/>
<line fill="none" stroke="#fff" stroke-width="1.139" stroke-miterlimit="10" x1="166.19" y1="40.303" x2="519.273" y2="627.931"/>
<line fill="none" stroke="#fff" stroke-width="1.139" stroke-miterlimit="10" x1="161.089" y1="43.429" x2="524.373" y2="624.806"/>
<line fill="none" stroke="#fff" stroke-width="1.139" stroke-miterlimit="10" x1="156.043" y1="46.643" x2="529.418" y2="621.59"/>
<line fill="none" stroke="#fff" stroke-width="1.139" stroke-miterlimit="10" x1="151.055" y1="49.945" x2="534.408" y2="618.289"/>
<line fill="none" stroke="#fff" stroke-width="1.139" stroke-miterlimit="10" x1="146.125" y1="53.333" x2="539.338" y2="614.9"/>
<line fill="none" stroke="#fff" stroke-width="1.139" stroke-miterlimit="10" x1="141.254" y1="56.808" x2="544.208" y2="611.426"/>
<line fill="none" stroke="#fff" stroke-width="1.139" stroke-miterlimit="10" x1="136.445" y1="60.366" x2="549.018" y2="607.867"/>
<line fill="none" stroke="#fff" stroke-width="1.139" stroke-miterlimit="10" x1="131.699" y1="64.008" x2="553.763" y2="604.226"/>
<line fill="none" stroke="#fff" stroke-width="1.139" stroke-miterlimit="10" x1="127.018" y1="67.732" x2="558.445" y2="600.502"/>
<line fill="none" stroke="#fff" stroke-width="1.139" stroke-miterlimit="10" x1="122.401" y1="71.538" x2="563.062" y2="596.696"/>
<line fill="none" stroke="#fff" stroke-width="1.139" stroke-miterlimit="10" x1="117.852" y1="75.422" x2="567.61" y2="592.811"/>
<line fill="none" stroke="#fff" stroke-width="1.139" stroke-miterlimit="10" x1="113.371" y1="79.387" x2="572.091" y2="588.846"/>
<line fill="none" stroke="#fff" stroke-width="1.139" stroke-miterlimit="10" x1="108.96" y1="83.428" x2="576.502" y2="584.805"/>
<line fill="none" stroke="#fff" stroke-width="1.139" stroke-miterlimit="10" x1="104.621" y1="87.546" x2="580.842" y2="580.688"/>
<line fill="none" stroke="#fff" stroke-width="1.139" stroke-miterlimit="10" x1="100.354" y1="91.739" x2="585.109" y2="576.494"/>
<line fill="none" stroke="#fff" stroke-width="1.139" stroke-miterlimit="10" x1="96.161" y1="96.007" x2="589.302" y2="572.228"/>
<line fill="none" stroke="#fff" stroke-width="1.139" stroke-miterlimit="10" x1="92.043" y1="100.346" x2="593.419" y2="567.888"/>
<line fill="none" stroke="#fff" stroke-width="1.139" stroke-miterlimit="10" x1="88" y1="104.756" x2="597.462" y2="563.477"/>
<line fill="none" stroke="#fff" stroke-width="1.139" stroke-miterlimit="10" x1="84.037" y1="109.237" x2="601.426" y2="558.996"/>
<line fill="none" stroke="#fff" stroke-width="1.139" stroke-miterlimit="10" x1="80.152" y1="113.787" x2="605.311" y2="554.446"/>
<line fill="none" stroke="#fff" stroke-width="1.139" stroke-miterlimit="10" x1="76.346" y1="118.403" x2="609.116" y2="549.831"/>
<line fill="none" stroke="#fff" stroke-width="1.139" stroke-miterlimit="10" x1="72.622" y1="123.084" x2="612.84" y2="545.148"/>
<line fill="none" stroke="#fff" stroke-width="1.139" stroke-miterlimit="10" x1="68.98" y1="127.831" x2="616.48" y2="540.403"/>
<line fill="none" stroke="#fff" stroke-width="1.139" stroke-miterlimit="10" x1="65.421" y1="132.64" x2="620.039" y2="535.594"/>
<line fill="none" stroke="#fff" stroke-width="1.139" stroke-miterlimit="10" x1="61.948" y1="137.51" x2="623.515" y2="530.724"/>
<line fill="none" stroke="#fff" stroke-width="1.139" stroke-miterlimit="10" x1="58.559" y1="142.44" x2="626.903" y2="525.793"/>
<line fill="none" stroke="#fff" stroke-width="1.139" stroke-miterlimit="10" x1="55.258" y1="147.429" x2="630.206" y2="520.804"/>
<line fill="none" stroke="#fff" stroke-width="1.139" stroke-miterlimit="10" x1="52.043" y1="152.475" x2="633.42" y2="515.759"/>
<line fill="none" stroke="#fff" stroke-width="1.139" stroke-miterlimit="10" x1="48.917" y1="157.576" x2="636.545" y2="510.658"/>
<line fill="none" stroke="#fff" stroke-width="1.139" stroke-miterlimit="10" x1="45.881" y1="162.73" x2="639.581" y2="505.504"/>
<line fill="none" stroke="#fff" stroke-width="1.139" stroke-miterlimit="10" x1="42.935" y1="167.937" x2="642.527" y2="500.296"/>
<line fill="none" stroke="#fff" stroke-width="1.139" stroke-miterlimit="10" x1="40.08" y1="173.194" x2="645.383" y2="495.038"/>
<line fill="none" stroke="#fff" stroke-width="1.139" stroke-miterlimit="10" x1="37.318" y1="178.501" x2="648.145" y2="489.733"/>
<line fill="none" stroke="#fff" stroke-width="1.139" stroke-miterlimit="10" x1="34.648" y1="183.855" x2="650.813" y2="484.379"/>
<line fill="none" stroke="#fff" stroke-width="1.139" stroke-miterlimit="10" x1="32.073" y1="189.254" x2="653.389" y2="478.979"/>
<line fill="none" stroke="#fff" stroke-width="1.139" stroke-miterlimit="10" x1="29.593" y1="194.699" x2="655.871" y2="473.536"/>
<line fill="none" stroke="#fff" stroke-width="1.139" stroke-miterlimit="10" x1="27.207" y1="200.185" x2="658.257" y2="468.049"/>
<line fill="none" stroke="#fff" stroke-width="1.139" stroke-miterlimit="10" x1="24.917" y1="205.712" x2="660.545" y2="462.521"/>
<line fill="none" stroke="#fff" stroke-width="1.139" stroke-miterlimit="10" x1="22.725" y1="211.277" x2="662.738" y2="456.954"/>
<line fill="none" stroke="#fff" stroke-width="1.139" stroke-miterlimit="10" x1="20.63" y1="216.881" x2="664.833" y2="451.353"/>
<line fill="none" stroke="#fff" stroke-width="1.139" stroke-miterlimit="10" x1="18.633" y1="222.521" x2="666.829" y2="445.713"/>
<line fill="none" stroke="#fff" stroke-width="1.139" stroke-miterlimit="10" x1="16.735" y1="228.194" x2="668.728" y2="440.04"/>
<line fill="none" stroke="#fff" stroke-width="1.139" stroke-miterlimit="10" x1="14.936" y1="233.9" x2="670.526" y2="434.334"/>
<line fill="none" stroke="#fff" stroke-width="1.139" stroke-miterlimit="10" x1="13.236" y1="239.636" x2="672.225" y2="428.598"/>
<line fill="none" stroke="#fff" stroke-width="1.139" stroke-miterlimit="10" x1="11.638" y1="245.4" x2="673.823" y2="422.833"/>
<line fill="none" stroke="#fff" stroke-width="1.139" stroke-miterlimit="10" x1="10.141" y1="251.192" x2="675.322" y2="417.04"/>
<line fill="none" stroke="#fff" stroke-width="1.139" stroke-miterlimit="10" x1="8.743" y1="257.009" x2="676.719" y2="411.225"/>
<line fill="none" stroke="#fff" stroke-width="1.139" stroke-miterlimit="10" x1="7.448" y1="262.85" x2="678.015" y2="405.382"/>
<line fill="none" stroke="#fff" stroke-width="1.139" stroke-miterlimit="10" x1="6.256" y1="268.712" x2="679.207" y2="399.521"/>
<line fill="none" stroke="#fff" stroke-width="1.139" stroke-miterlimit="10" x1="5.166" y1="274.594" x2="680.297" y2="393.638"/>
<line fill="none" stroke="#fff" stroke-width="1.139" stroke-miterlimit="10" x1="4.178" y1="280.495" x2="681.284" y2="387.737"/>
<line fill="none" stroke="#fff" stroke-width="1.139" stroke-miterlimit="10" x1="3.293" y1="286.412" x2="682.169" y2="381.822"/>
<line fill="none" stroke="#fff" stroke-width="1.139" stroke-miterlimit="10" x1="2.513" y1="292.343" x2="682.949" y2="375.891"/>
<line fill="none" stroke="#fff" stroke-width="1.139" stroke-miterlimit="10" x1="1.836" y1="298.287" x2="683.627" y2="369.947"/>
<line fill="none" stroke="#fff" stroke-width="1.139" stroke-miterlimit="10" x1="1.262" y1="304.242" x2="684.199" y2="363.991"/>
<line fill="none" stroke="#fff" stroke-width="1.139" stroke-miterlimit="10" x1="0.793" y1="310.206" x2="684.67" y2="358.026"/>
<line fill="none" stroke="#fff" stroke-width="1.139" stroke-miterlimit="10" x1="0.428" y1="316.177" x2="685.035" y2="352.056"/>
<line fill="none" stroke="#fff" stroke-width="1.139" stroke-miterlimit="10" x1="0.167" y1="322.154" x2="685.296" y2="346.079"/>
<line fill="none" stroke="#fff" stroke-width="1.139" stroke-miterlimit="10" x1="0.01" y1="328.134" x2="685.452" y2="340.1"/>
<line fill="none" stroke="#fff" stroke-width="1.139" stroke-miterlimit="10" x1="0.421" y1="333.869" x2="685.421" y2="333.869"/>
<line fill="none" stroke="#fff" stroke-width="1.139" stroke-miterlimit="10" x1="0.01" y1="340.099" x2="685.452" y2="328.134"/>
<line fill="none" stroke="#fff" stroke-width="1.139" stroke-miterlimit="10" x1="0.167" y1="346.079" x2="685.296" y2="322.154"/>
<line fill="none" stroke="#fff" stroke-width="1.139" stroke-miterlimit="10" x1="0.428" y1="352.056" x2="685.035" y2="316.177"/>
<line fill="none" stroke="#fff" stroke-width="1.139" stroke-miterlimit="10" x1="0.793" y1="358.027" x2="684.67" y2="310.207"/>
<line fill="none" stroke="#fff" stroke-width="1.139" stroke-miterlimit="10" x1="1.262" y1="363.991" x2="684.199" y2="304.242"/>
<line fill="none" stroke="#fff" stroke-width="1.139" stroke-miterlimit="10" x1="1.836" y1="369.946" x2="683.627" y2="298.287"/>
<line fill="none" stroke="#fff" stroke-width="1.139" stroke-miterlimit="10" x1="2.513" y1="375.891" x2="682.949" y2="292.343"/>
<line fill="none" stroke="#fff" stroke-width="1.139" stroke-miterlimit="10" x1="3.293" y1="381.821" x2="682.169" y2="286.411"/>
<line fill="none" stroke="#fff" stroke-width="1.139" stroke-miterlimit="10" x1="4.178" y1="387.738" x2="681.284" y2="280.496"/>
<line fill="none" stroke="#fff" stroke-width="1.139" stroke-miterlimit="10" x1="5.166" y1="393.638" x2="680.297" y2="274.595"/>
<line fill="none" stroke="#fff" stroke-width="1.139" stroke-miterlimit="10" x1="6.256" y1="399.521" x2="679.207" y2="268.712"/>
<line fill="none" stroke="#fff" stroke-width="1.139" stroke-miterlimit="10" x1="7.448" y1="405.383" x2="678.015" y2="262.851"/>
<line fill="none" stroke="#fff" stroke-width="1.139" stroke-miterlimit="10" x1="8.743" y1="411.224" x2="676.719" y2="257.009"/>
<line fill="none" stroke="#fff" stroke-width="1.139" stroke-miterlimit="10" x1="10.141" y1="417.04" x2="675.322" y2="251.192"/>
<line fill="none" stroke="#fff" stroke-width="1.139" stroke-miterlimit="10" x1="11.638" y1="422.833" x2="673.823" y2="245.4"/>
<line fill="none" stroke="#fff" stroke-width="1.139" stroke-miterlimit="10" x1="13.236" y1="428.599" x2="672.225" y2="239.636"/>
<line fill="none" stroke="#fff" stroke-width="1.139" stroke-miterlimit="10" x1="14.936" y1="434.334" x2="670.526" y2="233.9"/>
<line fill="none" stroke="#fff" stroke-width="1.139" stroke-miterlimit="10" x1="16.735" y1="440.039" x2="668.728" y2="228.193"/>
<line fill="none" stroke="#fff" stroke-width="1.139" stroke-miterlimit="10" x1="18.633" y1="445.712" x2="666.829" y2="222.521"/>
<line fill="none" stroke="#fff" stroke-width="1.139" stroke-miterlimit="10" x1="20.63" y1="451.353" x2="664.833" y2="216.881"/>
<line fill="none" stroke="#fff" stroke-width="1.139" stroke-miterlimit="10" x1="22.725" y1="456.955" x2="662.738" y2="211.278"/>
<line fill="none" stroke="#fff" stroke-width="1.139" stroke-miterlimit="10" x1="24.917" y1="462.521" x2="660.545" y2="205.712"/>
<line fill="none" stroke="#fff" stroke-width="1.139" stroke-miterlimit="10" x1="27.207" y1="468.049" x2="658.257" y2="200.185"/>
<line fill="none" stroke="#fff" stroke-width="1.139" stroke-miterlimit="10" x1="29.593" y1="473.535" x2="655.871" y2="194.698"/>
<line fill="none" stroke="#fff" stroke-width="1.139" stroke-miterlimit="10" x1="32.073" y1="478.979" x2="653.389" y2="189.254"/>
<line fill="none" stroke="#fff" stroke-width="1.139" stroke-miterlimit="10" x1="34.648" y1="484.379" x2="650.813" y2="183.855"/>
<line fill="none" stroke="#fff" stroke-width="1.139" stroke-miterlimit="10" x1="37.318" y1="489.732" x2="648.145" y2="178.501"/>
<line fill="none" stroke="#fff" stroke-width="1.139" stroke-miterlimit="10" x1="40.08" y1="495.039" x2="645.383" y2="173.195"/>
<line fill="none" stroke="#fff" stroke-width="1.139" stroke-miterlimit="10" x1="42.935" y1="500.296" x2="642.527" y2="167.937"/>
<line fill="none" stroke="#fff" stroke-width="1.139" stroke-miterlimit="10" x1="45.881" y1="505.503" x2="639.581" y2="162.73"/>
<line fill="none" stroke="#fff" stroke-width="1.139" stroke-miterlimit="10" x1="48.917" y1="510.658" x2="636.545" y2="157.575"/>
<line fill="none" stroke="#fff" stroke-width="1.139" stroke-miterlimit="10" x1="52.043" y1="515.759" x2="633.42" y2="152.475"/>
<line fill="none" stroke="#fff" stroke-width="1.139" stroke-miterlimit="10" x1="55.258" y1="520.804" x2="630.206" y2="147.429"/>
<line fill="none" stroke="#fff" stroke-width="1.139" stroke-miterlimit="10" x1="58.559" y1="525.793" x2="626.903" y2="142.44"/>
<line fill="none" stroke="#fff" stroke-width="1.139" stroke-miterlimit="10" x1="61.948" y1="530.723" x2="623.515" y2="137.51"/>
<line fill="none" stroke="#fff" stroke-width="1.139" stroke-miterlimit="10" x1="65.421" y1="535.594" x2="620.039" y2="132.64"/>
<line fill="none" stroke="#fff" stroke-width="1.139" stroke-miterlimit="10" x1="68.98" y1="540.403" x2="616.48" y2="127.831"/>
<line fill="none" stroke="#fff" stroke-width="1.139" stroke-miterlimit="10" x1="72.622" y1="545.148" x2="612.84" y2="123.084"/>
<line fill="none" stroke="#fff" stroke-width="1.139" stroke-miterlimit="10" x1="76.346" y1="549.83" x2="609.116" y2="118.402"/>
<line fill="none" stroke="#fff" stroke-width="1.139" stroke-miterlimit="10" x1="80.152" y1="554.447" x2="605.311" y2="113.787"/>
<line fill="none" stroke="#fff" stroke-width="1.139" stroke-miterlimit="10" x1="84.037" y1="558.996" x2="601.426" y2="109.237"/>
<line fill="none" stroke="#fff" stroke-width="1.139" stroke-miterlimit="10" x1="88" y1="563.478" x2="597.462" y2="104.757"/>
<line fill="none" stroke="#fff" stroke-width="1.139" stroke-miterlimit="10" x1="92.043" y1="567.888" x2="593.419" y2="100.346"/>
<line fill="none" stroke="#fff" stroke-width="1.139" stroke-miterlimit="10" x1="96.161" y1="572.228" x2="589.302" y2="96.006"/>
<line fill="none" stroke="#fff" stroke-width="1.139" stroke-miterlimit="10" x1="100.354" y1="576.494" x2="585.109" y2="91.739"/>
<line fill="none" stroke="#fff" stroke-width="1.139" stroke-miterlimit="10" x1="104.621" y1="580.687" x2="580.842" y2="87.546"/>
<line fill="none" stroke="#fff" stroke-width="1.139" stroke-miterlimit="10" x1="108.96" y1="584.805" x2="576.502" y2="83.429"/>
<line fill="none" stroke="#fff" stroke-width="1.139" stroke-miterlimit="10" x1="113.371" y1="588.847" x2="572.091" y2="79.387"/>
<line fill="none" stroke="#fff" stroke-width="1.139" stroke-miterlimit="10" x1="117.852" y1="592.811" x2="567.61" y2="75.422"/>
<line fill="none" stroke="#fff" stroke-width="1.139" stroke-miterlimit="10" x1="122.401" y1="596.696" x2="563.062" y2="71.537"/>
<line fill="none" stroke="#fff" stroke-width="1.139" stroke-miterlimit="10" x1="127.018" y1="600.502" x2="558.445" y2="67.732"/>
<line fill="none" stroke="#fff" stroke-width="1.139" stroke-miterlimit="10" x1="131.699" y1="604.226" x2="553.763" y2="64.008"/>
<line fill="none" stroke="#fff" stroke-width="1.139" stroke-miterlimit="10" x1="136.445" y1="607.867" x2="549.018" y2="60.366"/>
<line fill="none" stroke="#fff" stroke-width="1.139" stroke-miterlimit="10" x1="141.254" y1="611.426" x2="544.208" y2="56.808"/>
<line fill="none" stroke="#fff" stroke-width="1.139" stroke-miterlimit="10" x1="146.125" y1="614.899" x2="539.338" y2="53.333"/>
<line fill="none" stroke="#fff" stroke-width="1.139" stroke-miterlimit="10" x1="151.055" y1="618.289" x2="534.408" y2="49.945"/>
<line fill="none" stroke="#fff" stroke-width="1.139" stroke-miterlimit="10" x1="156.043" y1="621.591" x2="529.418" y2="46.643"/>
<line fill="none" stroke="#fff" stroke-width="1.139" stroke-miterlimit="10" x1="161.089" y1="624.806" x2="524.373" y2="43.428"/>
<line fill="none" stroke="#fff" stroke-width="1.139" stroke-miterlimit="10" x1="166.19" y1="627.932" x2="519.273" y2="40.303"/>
<line fill="none" stroke="#fff" stroke-width="1.139" stroke-miterlimit="10" x1="171.345" y1="630.967" x2="514.118" y2="37.267"/>
<line fill="none" stroke="#fff" stroke-width="1.139" stroke-miterlimit="10" x1="176.551" y1="633.912" x2="508.91" y2="34.32"/>
<line fill="none" stroke="#fff" stroke-width="1.139" stroke-miterlimit="10" x1="181.81" y1="636.768" x2="503.653" y2="31.466"/>
<line fill="none" stroke="#fff" stroke-width="1.139" stroke-miterlimit="10" x1="187.115" y1="639.53" x2="498.348" y2="28.704"/>
<line fill="none" stroke="#fff" stroke-width="1.139" stroke-miterlimit="10" x1="192.469" y1="642.199" x2="492.993" y2="26.035"/>
<line fill="none" stroke="#fff" stroke-width="1.139" stroke-miterlimit="10" x1="197.869" y1="644.774" x2="487.594" y2="23.459"/>
<line fill="none" stroke="#fff" stroke-width="1.139" stroke-miterlimit="10" x1="203.313" y1="647.255" x2="482.149" y2="20.978"/>
<line fill="none" stroke="#fff" stroke-width="1.139" stroke-miterlimit="10" x1="208.799" y1="649.642" x2="476.663" y2="18.591"/>
<line fill="none" stroke="#fff" stroke-width="1.139" stroke-miterlimit="10" x1="214.327" y1="651.931" x2="471.137" y2="16.303"/>
<line fill="none" stroke="#fff" stroke-width="1.139" stroke-miterlimit="10" x1="219.892" y1="654.123" x2="465.57" y2="14.11"/>
<line fill="none" stroke="#fff" stroke-width="1.139" stroke-miterlimit="10" x1="225.496" y1="656.218" x2="459.966" y2="12.015"/>
<line fill="none" stroke="#fff" stroke-width="1.139" stroke-miterlimit="10" x1="231.135" y1="658.215" x2="454.326" y2="10.019"/>
<line fill="none" stroke="#fff" stroke-width="1.139" stroke-miterlimit="10" x1="236.809" y1="660.113" x2="448.655" y2="8.121"/>
<line fill="none" stroke="#fff" stroke-width="1.139" stroke-miterlimit="10" x1="242.514" y1="661.912" x2="442.948" y2="6.321"/>
<line fill="none" stroke="#fff" stroke-width="1.139" stroke-miterlimit="10" x1="248.25" y1="663.61" x2="437.212" y2="4.622"/>
<line fill="none" stroke="#fff" stroke-width="1.139" stroke-miterlimit="10" x1="254.016" y1="665.211" x2="431.448" y2="3.024"/>
<line fill="none" stroke="#fff" stroke-width="1.139" stroke-miterlimit="10" x1="259.806" y1="666.708" x2="425.655" y2="1.526"/>
<line fill="none" stroke="#fff" stroke-width="1.139" stroke-miterlimit="10" x1="265.625" y1="668.104" x2="419.839" y2="0.128"/>
</svg>
